<mxfile host="app.diagrams.net" modified="2023-11-08T03:00:00.450Z" agent="Mozilla/5.0 (Windows NT 10.0; Win64; x64) AppleWebKit/537.36 (KHTML, like Gecko) Chrome/119.0.0.0 Safari/537.36" etag="s0g0N_7e_poKeonktCNR" version="22.0.8" type="github">
  <diagram name="Page-1" id="U2yzPNKRa5jr_gz5b9rq">
    <mxGraphModel dx="1056" dy="393" grid="1" gridSize="10" guides="1" tooltips="1" connect="1" arrows="1" fold="1" page="1" pageScale="1" pageWidth="850" pageHeight="1100" math="0" shadow="0">
      <root>
        <mxCell id="0" />
        <mxCell id="1" parent="0" />
        <mxCell id="41qSbJFIDwx0e7CXlq-T-26" value="AFJ - Consulta de pedido de saldo" style="swimlane;whiteSpace=wrap;html=1;fontSize=9;" vertex="1" parent="1">
          <mxGeometry x="120" y="250" width="550" height="330" as="geometry">
            <mxRectangle x="100" y="260" width="190" height="23" as="alternateBounds" />
          </mxGeometry>
        </mxCell>
        <mxCell id="41qSbJFIDwx0e7CXlq-T-5" value="" style="sketch=0;points=[[0,0,0],[0.25,0,0],[0.5,0,0],[0.75,0,0],[1,0,0],[0,1,0],[0.25,1,0],[0.5,1,0],[0.75,1,0],[1,1,0],[0,0.25,0],[0,0.5,0],[0,0.75,0],[1,0.25,0],[1,0.5,0],[1,0.75,0]];outlineConnect=0;fontColor=#232F3E;fillColor=#ED7100;strokeColor=#ffffff;dashed=0;verticalLabelPosition=bottom;verticalAlign=top;align=center;html=1;fontSize=12;fontStyle=0;aspect=fixed;shape=mxgraph.aws4.resourceIcon;resIcon=mxgraph.aws4.eks;" vertex="1" parent="41qSbJFIDwx0e7CXlq-T-26">
          <mxGeometry x="56.930000000000014" y="120" width="30" height="30" as="geometry" />
        </mxCell>
        <mxCell id="41qSbJFIDwx0e7CXlq-T-6" value="" style="sketch=0;points=[[0,0,0],[0.25,0,0],[0.5,0,0],[0.75,0,0],[1,0,0],[0,1,0],[0.25,1,0],[0.5,1,0],[0.75,1,0],[1,1,0],[0,0.25,0],[0,0.5,0],[0,0.75,0],[1,0.25,0],[1,0.5,0],[1,0.75,0]];outlineConnect=0;fontColor=#232F3E;fillColor=#ED7100;strokeColor=#ffffff;dashed=0;verticalLabelPosition=bottom;verticalAlign=top;align=center;html=1;fontSize=12;fontStyle=0;aspect=fixed;shape=mxgraph.aws4.resourceIcon;resIcon=mxgraph.aws4.eks;" vertex="1" parent="41qSbJFIDwx0e7CXlq-T-26">
          <mxGeometry x="156.93" y="120" width="30" height="30" as="geometry" />
        </mxCell>
        <mxCell id="41qSbJFIDwx0e7CXlq-T-7" value="" style="sketch=0;points=[[0,0,0],[0.25,0,0],[0.5,0,0],[0.75,0,0],[1,0,0],[0,1,0],[0.25,1,0],[0.5,1,0],[0.75,1,0],[1,1,0],[0,0.25,0],[0,0.5,0],[0,0.75,0],[1,0.25,0],[1,0.5,0],[1,0.75,0]];outlineConnect=0;fontColor=#232F3E;fillColor=#ED7100;strokeColor=#ffffff;dashed=0;verticalLabelPosition=bottom;verticalAlign=top;align=center;html=1;fontSize=12;fontStyle=1;aspect=fixed;shape=mxgraph.aws4.resourceIcon;resIcon=mxgraph.aws4.eks;" vertex="1" parent="41qSbJFIDwx0e7CXlq-T-26">
          <mxGeometry x="156.93" y="200" width="30" height="30" as="geometry" />
        </mxCell>
        <mxCell id="41qSbJFIDwx0e7CXlq-T-21" style="edgeStyle=orthogonalEdgeStyle;rounded=0;orthogonalLoop=1;jettySize=auto;html=1;dashed=1;endArrow=open;endFill=0;flowAnimation=1;startArrow=open;startFill=0;" edge="1" parent="41qSbJFIDwx0e7CXlq-T-26" source="41qSbJFIDwx0e7CXlq-T-6" target="41qSbJFIDwx0e7CXlq-T-7">
          <mxGeometry relative="1" as="geometry" />
        </mxCell>
        <mxCell id="41qSbJFIDwx0e7CXlq-T-32" style="edgeStyle=orthogonalEdgeStyle;rounded=0;orthogonalLoop=1;jettySize=auto;html=1;entryX=0.407;entryY=-0.045;entryDx=0;entryDy=0;entryPerimeter=0;dashed=1;flowAnimation=1;endArrow=open;endFill=0;startArrow=none;startFill=0;" edge="1" parent="41qSbJFIDwx0e7CXlq-T-26">
          <mxGeometry relative="1" as="geometry">
            <mxPoint x="282.08" y="160.9" as="sourcePoint" />
            <mxPoint x="282.42522" y="218.6500000000001" as="targetPoint" />
            <Array as="points">
              <mxPoint x="281.93" y="201" />
              <mxPoint x="281.93" y="210" />
              <mxPoint x="276.93" y="210" />
            </Array>
          </mxGeometry>
        </mxCell>
        <mxCell id="41qSbJFIDwx0e7CXlq-T-193" style="edgeStyle=orthogonalEdgeStyle;rounded=0;orthogonalLoop=1;jettySize=auto;html=1;dashed=1;dashPattern=8 8;endArrow=open;endFill=0;flowAnimation=1;" edge="1" parent="41qSbJFIDwx0e7CXlq-T-26">
          <mxGeometry relative="1" as="geometry">
            <mxPoint x="296.93000000000023" y="148.75" as="sourcePoint" />
            <mxPoint x="326.95" y="186.30999999999995" as="targetPoint" />
            <Array as="points">
              <mxPoint x="326.95" y="148.75" />
            </Array>
          </mxGeometry>
        </mxCell>
        <mxCell id="41qSbJFIDwx0e7CXlq-T-8" value="" style="points=[[0,0,0],[0.25,0,0],[0.5,0,0],[0.75,0,0],[1,0,0],[0,1,0],[0.25,1,0],[0.5,1,0],[0.75,1,0],[1,1,0],[0,0.25,0],[0,0.5,0],[0,0.75,0],[1,0.25,0],[1,0.5,0],[1,0.75,0]];outlineConnect=0;fontColor=#232F3E;fillColor=#ED7100;strokeColor=#ffffff;dashed=0;verticalLabelPosition=bottom;verticalAlign=top;align=center;html=1;fontSize=12;fontStyle=1;aspect=fixed;shape=mxgraph.aws4.resourceIcon;resIcon=mxgraph.aws4.eks;shadow=0;" vertex="1" parent="41qSbJFIDwx0e7CXlq-T-26">
          <mxGeometry x="266.93" y="120" width="30" height="30" as="geometry" />
        </mxCell>
        <mxCell id="41qSbJFIDwx0e7CXlq-T-113" style="edgeStyle=orthogonalEdgeStyle;rounded=0;orthogonalLoop=1;jettySize=auto;html=1;entryX=0.5;entryY=1;entryDx=0;entryDy=0;endArrow=open;endFill=0;dashed=1;dashPattern=8 8;flowAnimation=1;" edge="1" parent="41qSbJFIDwx0e7CXlq-T-26" source="41qSbJFIDwx0e7CXlq-T-9" target="41qSbJFIDwx0e7CXlq-T-107">
          <mxGeometry relative="1" as="geometry" />
        </mxCell>
        <mxCell id="41qSbJFIDwx0e7CXlq-T-9" value="" style="outlineConnect=0;dashed=0;verticalLabelPosition=bottom;verticalAlign=top;align=center;html=1;shape=mxgraph.aws3.rds;fillColor=#2E73B8;gradientColor=none;" vertex="1" parent="41qSbJFIDwx0e7CXlq-T-26">
          <mxGeometry x="159.18" y="280" width="25.5" height="30" as="geometry" />
        </mxCell>
        <mxCell id="41qSbJFIDwx0e7CXlq-T-22" style="edgeStyle=orthogonalEdgeStyle;rounded=0;orthogonalLoop=1;jettySize=auto;html=1;entryX=0;entryY=0.5;entryDx=0;entryDy=0;entryPerimeter=0;dashed=1;endArrow=open;endFill=0;flowAnimation=1;dashPattern=12 12;" edge="1" parent="41qSbJFIDwx0e7CXlq-T-26">
          <mxGeometry relative="1" as="geometry">
            <mxPoint x="89.18" y="127.75000000000003" as="sourcePoint" />
            <mxPoint x="159.18" y="127.75000000000003" as="targetPoint" />
          </mxGeometry>
        </mxCell>
        <mxCell id="41qSbJFIDwx0e7CXlq-T-28" style="edgeStyle=orthogonalEdgeStyle;rounded=0;orthogonalLoop=1;jettySize=auto;html=1;endArrow=open;endFill=0;dashed=1;flowAnimation=1;dashPattern=12 12;" edge="1" parent="41qSbJFIDwx0e7CXlq-T-26">
          <mxGeometry relative="1" as="geometry">
            <mxPoint x="186.93" y="128" as="sourcePoint" />
            <mxPoint x="266.93" y="128" as="targetPoint" />
            <Array as="points">
              <mxPoint x="266.93" y="128.25" />
            </Array>
          </mxGeometry>
        </mxCell>
        <mxCell id="41qSbJFIDwx0e7CXlq-T-29" style="edgeStyle=orthogonalEdgeStyle;rounded=0;orthogonalLoop=1;jettySize=auto;html=1;entryX=1;entryY=0.75;entryDx=0;entryDy=0;entryPerimeter=0;flowAnimation=1;" edge="1" parent="41qSbJFIDwx0e7CXlq-T-26" source="41qSbJFIDwx0e7CXlq-T-8" target="41qSbJFIDwx0e7CXlq-T-6">
          <mxGeometry relative="1" as="geometry">
            <Array as="points">
              <mxPoint x="226.93" y="143" />
            </Array>
          </mxGeometry>
        </mxCell>
        <mxCell id="41qSbJFIDwx0e7CXlq-T-30" style="edgeStyle=orthogonalEdgeStyle;rounded=0;orthogonalLoop=1;jettySize=auto;html=1;entryX=1;entryY=0.75;entryDx=0;entryDy=0;entryPerimeter=0;flowAnimation=1;" edge="1" parent="41qSbJFIDwx0e7CXlq-T-26">
          <mxGeometry relative="1" as="geometry">
            <mxPoint x="156.93" y="140" as="sourcePoint" />
            <mxPoint x="86.93" y="140" as="targetPoint" />
            <Array as="points">
              <mxPoint x="126.93" y="140" />
            </Array>
          </mxGeometry>
        </mxCell>
        <mxCell id="41qSbJFIDwx0e7CXlq-T-197" style="edgeStyle=orthogonalEdgeStyle;rounded=0;orthogonalLoop=1;jettySize=auto;html=1;dashed=1;dashPattern=8 8;endArrow=open;endFill=0;flowAnimation=1;" edge="1" parent="41qSbJFIDwx0e7CXlq-T-26" source="41qSbJFIDwx0e7CXlq-T-17" target="41qSbJFIDwx0e7CXlq-T-176">
          <mxGeometry relative="1" as="geometry">
            <Array as="points">
              <mxPoint x="457.95" y="130" />
            </Array>
          </mxGeometry>
        </mxCell>
        <mxCell id="41qSbJFIDwx0e7CXlq-T-17" value="" style="sketch=0;outlineConnect=0;fontColor=#232F3E;gradientColor=none;fillColor=#ED7100;strokeColor=none;dashed=0;verticalLabelPosition=bottom;verticalAlign=top;align=center;html=1;fontSize=12;fontStyle=0;aspect=fixed;pointerEvents=1;shape=mxgraph.aws4.lambda_function;" vertex="1" parent="41qSbJFIDwx0e7CXlq-T-26">
          <mxGeometry x="446.95" y="62.61999999999999" width="22.25" height="22.25" as="geometry" />
        </mxCell>
        <mxCell id="41qSbJFIDwx0e7CXlq-T-103" value="BFF" style="text;html=1;strokeColor=none;fillColor=none;align=center;verticalAlign=middle;whiteSpace=wrap;rounded=0;fontSize=6;" vertex="1" parent="41qSbJFIDwx0e7CXlq-T-26">
          <mxGeometry x="61.930000000000014" y="150" width="20" height="10" as="geometry" />
        </mxCell>
        <mxCell id="41qSbJFIDwx0e7CXlq-T-104" value="Orquestrador" style="text;html=1;strokeColor=none;fillColor=none;align=center;verticalAlign=middle;whiteSpace=wrap;rounded=0;fontSize=6;" vertex="1" parent="41qSbJFIDwx0e7CXlq-T-26">
          <mxGeometry x="161.95" y="110" width="20" height="10" as="geometry" />
        </mxCell>
        <mxCell id="41qSbJFIDwx0e7CXlq-T-107" value="Contratos" style="text;html=1;strokeColor=none;fillColor=none;align=center;verticalAlign=middle;whiteSpace=wrap;rounded=0;fontSize=6;" vertex="1" parent="41qSbJFIDwx0e7CXlq-T-26">
          <mxGeometry x="121.94999999999999" y="230" width="100" height="10" as="geometry" />
        </mxCell>
        <mxCell id="41qSbJFIDwx0e7CXlq-T-144" value="Saldos" style="text;html=1;strokeColor=none;fillColor=none;align=center;verticalAlign=middle;whiteSpace=wrap;rounded=0;fontSize=6;" vertex="1" parent="41qSbJFIDwx0e7CXlq-T-26">
          <mxGeometry x="271.93" y="150" width="20" height="10" as="geometry" />
        </mxCell>
        <mxCell id="41qSbJFIDwx0e7CXlq-T-199" style="edgeStyle=orthogonalEdgeStyle;rounded=0;orthogonalLoop=1;jettySize=auto;html=1;dashed=1;dashPattern=8 8;endArrow=open;endFill=0;flowAnimation=1;" edge="1" parent="41qSbJFIDwx0e7CXlq-T-26" source="41qSbJFIDwx0e7CXlq-T-176" target="41qSbJFIDwx0e7CXlq-T-8">
          <mxGeometry relative="1" as="geometry">
            <Array as="points">
              <mxPoint x="346.95" y="135" />
              <mxPoint x="346.95" y="135" />
            </Array>
          </mxGeometry>
        </mxCell>
        <mxCell id="41qSbJFIDwx0e7CXlq-T-176" value="" style="outlineConnect=0;dashed=0;verticalLabelPosition=bottom;verticalAlign=top;align=center;html=1;shape=mxgraph.aws3.sqs;fillColor=#D9A741;gradientColor=none;" vertex="1" parent="41qSbJFIDwx0e7CXlq-T-26">
          <mxGeometry x="366.95" y="121.25" width="20.02" height="27.5" as="geometry" />
        </mxCell>
        <mxCell id="41qSbJFIDwx0e7CXlq-T-198" style="edgeStyle=orthogonalEdgeStyle;rounded=0;orthogonalLoop=1;jettySize=auto;html=1;dashed=1;dashPattern=8 8;endArrow=open;endFill=0;flowAnimation=1;" edge="1" parent="41qSbJFIDwx0e7CXlq-T-26" source="41qSbJFIDwx0e7CXlq-T-179" target="41qSbJFIDwx0e7CXlq-T-176">
          <mxGeometry relative="1" as="geometry">
            <Array as="points">
              <mxPoint x="457.95" y="140" />
            </Array>
          </mxGeometry>
        </mxCell>
        <mxCell id="41qSbJFIDwx0e7CXlq-T-179" value="" style="sketch=0;outlineConnect=0;fontColor=#232F3E;gradientColor=none;fillColor=#ED7100;strokeColor=none;dashed=0;verticalLabelPosition=bottom;verticalAlign=top;align=center;html=1;fontSize=12;fontStyle=0;aspect=fixed;pointerEvents=1;shape=mxgraph.aws4.lambda_function;" vertex="1" parent="41qSbJFIDwx0e7CXlq-T-26">
          <mxGeometry x="446.95" y="192.63" width="22.25" height="22.25" as="geometry" />
        </mxCell>
        <mxCell id="41qSbJFIDwx0e7CXlq-T-195" style="edgeStyle=orthogonalEdgeStyle;rounded=0;orthogonalLoop=1;jettySize=auto;html=1;dashed=1;dashPattern=8 8;endArrow=open;endFill=0;flowAnimation=1;" edge="1" parent="41qSbJFIDwx0e7CXlq-T-26" source="41qSbJFIDwx0e7CXlq-T-187" target="41qSbJFIDwx0e7CXlq-T-17">
          <mxGeometry relative="1" as="geometry" />
        </mxCell>
        <mxCell id="41qSbJFIDwx0e7CXlq-T-187" value="" style="outlineConnect=0;dashed=0;verticalLabelPosition=bottom;verticalAlign=top;align=center;html=1;shape=mxgraph.aws3.sqs;fillColor=#D9A741;gradientColor=none;" vertex="1" parent="41qSbJFIDwx0e7CXlq-T-26">
          <mxGeometry x="316.95000000000005" y="60" width="20.02" height="27.5" as="geometry" />
        </mxCell>
        <mxCell id="41qSbJFIDwx0e7CXlq-T-196" style="edgeStyle=orthogonalEdgeStyle;rounded=0;orthogonalLoop=1;jettySize=auto;html=1;dashed=1;dashPattern=8 8;endArrow=open;endFill=0;flowAnimation=1;" edge="1" parent="41qSbJFIDwx0e7CXlq-T-26" source="41qSbJFIDwx0e7CXlq-T-188" target="41qSbJFIDwx0e7CXlq-T-179">
          <mxGeometry relative="1" as="geometry" />
        </mxCell>
        <mxCell id="41qSbJFIDwx0e7CXlq-T-188" value="" style="outlineConnect=0;dashed=0;verticalLabelPosition=bottom;verticalAlign=top;align=center;html=1;shape=mxgraph.aws3.sqs;fillColor=#D9A741;gradientColor=none;" vertex="1" parent="41qSbJFIDwx0e7CXlq-T-26">
          <mxGeometry x="316.95000000000005" y="190" width="20.02" height="27.5" as="geometry" />
        </mxCell>
        <mxCell id="41qSbJFIDwx0e7CXlq-T-192" style="edgeStyle=orthogonalEdgeStyle;rounded=0;orthogonalLoop=1;jettySize=auto;html=1;entryX=0.5;entryY=1;entryDx=0;entryDy=0;entryPerimeter=0;dashed=1;dashPattern=8 8;endArrow=open;endFill=0;flowAnimation=1;" edge="1" parent="41qSbJFIDwx0e7CXlq-T-26">
          <mxGeometry relative="1" as="geometry">
            <mxPoint x="296.93000000000023" y="121.25" as="sourcePoint" />
            <mxPoint x="326.96" y="86.32000000000005" as="targetPoint" />
            <Array as="points">
              <mxPoint x="326.95" y="121.25" />
            </Array>
          </mxGeometry>
        </mxCell>
        <mxCell id="41qSbJFIDwx0e7CXlq-T-201" value="SQS- Saldos OpenFinance" style="text;html=1;strokeColor=none;fillColor=none;align=center;verticalAlign=middle;whiteSpace=wrap;rounded=0;fontSize=6;" vertex="1" parent="41qSbJFIDwx0e7CXlq-T-26">
          <mxGeometry x="291.96" y="220" width="70" height="10" as="geometry" />
        </mxCell>
        <mxCell id="41qSbJFIDwx0e7CXlq-T-202" value="SQS-&amp;nbsp; Saldo Consultados" style="text;html=1;strokeColor=none;fillColor=none;align=center;verticalAlign=middle;whiteSpace=wrap;rounded=0;fontSize=6;" vertex="1" parent="41qSbJFIDwx0e7CXlq-T-26">
          <mxGeometry x="341.96" y="110" width="70" height="10" as="geometry" />
        </mxCell>
        <mxCell id="41qSbJFIDwx0e7CXlq-T-204" value="" style="outlineConnect=0;dashed=0;verticalLabelPosition=bottom;verticalAlign=top;align=center;html=1;shape=mxgraph.aws3.elasticache;fillColor=#2E73B8;gradientColor=none;" vertex="1" parent="41qSbJFIDwx0e7CXlq-T-26">
          <mxGeometry x="269.7" y="220" width="24.46" height="30" as="geometry" />
        </mxCell>
        <mxCell id="41qSbJFIDwx0e7CXlq-T-205" value="ElastiCache - Redis" style="text;html=1;strokeColor=none;fillColor=none;align=center;verticalAlign=middle;whiteSpace=wrap;rounded=0;fontSize=6;" vertex="1" parent="41qSbJFIDwx0e7CXlq-T-26">
          <mxGeometry x="246.95" y="250" width="70" height="10" as="geometry" />
        </mxCell>
        <mxCell id="41qSbJFIDwx0e7CXlq-T-206" value="RDS" style="text;html=1;strokeColor=none;fillColor=none;align=center;verticalAlign=middle;whiteSpace=wrap;rounded=0;fontSize=6;" vertex="1" parent="41qSbJFIDwx0e7CXlq-T-26">
          <mxGeometry x="136.92999999999998" y="310" width="70" height="10" as="geometry" />
        </mxCell>
        <mxCell id="41qSbJFIDwx0e7CXlq-T-200" value="SQS- Saldos &lt;br&gt;Santander" style="text;html=1;strokeColor=none;fillColor=none;align=center;verticalAlign=middle;whiteSpace=wrap;rounded=0;fontSize=6;" vertex="1" parent="41qSbJFIDwx0e7CXlq-T-26">
          <mxGeometry x="291.93" y="50" width="70" height="10" as="geometry" />
        </mxCell>
        <mxCell id="41qSbJFIDwx0e7CXlq-T-207" value="Lambda - Consulta de Saldo OpenFinance" style="text;html=1;strokeColor=none;fillColor=none;align=center;verticalAlign=middle;whiteSpace=wrap;rounded=0;fontSize=6;" vertex="1" parent="41qSbJFIDwx0e7CXlq-T-26">
          <mxGeometry x="423.07" y="220" width="70" height="10" as="geometry" />
        </mxCell>
        <mxCell id="41qSbJFIDwx0e7CXlq-T-208" value="Lambda - Consulta de Saldo Santander" style="text;html=1;strokeColor=none;fillColor=none;align=center;verticalAlign=middle;whiteSpace=wrap;rounded=0;fontSize=6;" vertex="1" parent="41qSbJFIDwx0e7CXlq-T-26">
          <mxGeometry x="423.07" y="50" width="70" height="10" as="geometry" />
        </mxCell>
        <mxCell id="41qSbJFIDwx0e7CXlq-T-164" style="edgeStyle=orthogonalEdgeStyle;rounded=0;orthogonalLoop=1;jettySize=auto;html=1;dashed=1;endArrow=open;endFill=0;flowAnimation=1;dashPattern=12 12;" edge="1" parent="1" source="41qSbJFIDwx0e7CXlq-T-156">
          <mxGeometry relative="1" as="geometry">
            <mxPoint x="584.9800000000002" y="-20" as="targetPoint" />
          </mxGeometry>
        </mxCell>
        <mxCell id="41qSbJFIDwx0e7CXlq-T-171" value="Orquestrador" style="text;html=1;strokeColor=none;fillColor=none;align=center;verticalAlign=middle;whiteSpace=wrap;rounded=0;fontSize=6;" vertex="1" parent="1">
          <mxGeometry x="455" y="10" width="20" height="10" as="geometry" />
        </mxCell>
      </root>
    </mxGraphModel>
  </diagram>
</mxfile>
